<svg width="348" height="241" viewBox="0 0 348 241" xmlns="http://www.w3.org/2000/svg" fill="none"><path d="M309.73 100.588c-9.51 12.6-25.489 20.083-42.192 20.083-27.131 0-51.244-20.734-51.244-47.865 0-22.375 12.213-38.427 29.061-45.813 4.562-2.003 9.438-3.355 14.531-4.055 2.51-.338 5.069-.507 7.676-.507 6.734 0 13.179 1.352 19.117 3.814 17.958 7.434 31.016 24.934 31.933 45.306.483 11.296-2.944 21.168-8.882 29.037z" fill="#60898F" fill-opacity=".4"/><path d="M239.297 75.872s1.907 4.441 0 6.879c-1.907 2.438-2.076 7.048 1.738 10.09 3.838 3.041 5.479 3.307 4.61 6.348-.869 3.041-1.786 6.758-.338 8.328 1.424 1.569 2.028 5.286 5.214 5.552 3.186.265-.266-2.535 1.834-5.142 2.076-2.607 10.162-3.138 9.39-8.279-.773-5.141 6.662-5.6 7.7-9.003 1.038-3.403-3.404-5.479-7.121-5.214-3.717.266-1.424-5.552-5.479-6.396-4.055-.845-5.938-4.103-8.279-3.717-2.341.386-4.948-2.945-7.628-1.883-2.679 1.014-1.641 2.438-1.641 2.438zM232.515 40.39s-2.776 2.172-3.573 5.648c-.772 3.476-4.707 5.648-5.31 10.427-.603 4.779 2.148 4.924 1.183 7.531-.99 2.607.241 3.91 3.21 5.214 2.969 1.303 3.234 3.307 4.996 3.959 1.763.652 1.304 2.414 1.883 2.607.579.193.338-1.328.942-3.331.603-2.003 1.134-2.824-1.087-2.727-2.22.097-1.52-1.69-.651-2.824s-1.207-1.303-1.907-1.134c-.7.169-.531 3.379-1.955 1.858s-2.124-3.258-.966-5.262c1.183-2.003 3.693-.338 5.479-2.727 1.787-2.39 4.297-1.424 4.442.483.12 1.907 3.693 1.955 4.296-.555.604-2.51.338-6.903 4.007-7.627 3.645-.724 10.838-4.369 6.252-5.865-4.562-1.496-2.752-4.634-5.093-4.441-2.342.193-1.425 3.717-4.056 2.679-2.606-1.038-4.489-3.838-.844-4.634 3.644-.772 5.141-4.828 2.341-4.562s-3.259-2.486-4.948-2.148c-1.69.338-3.452 4.441-5.214 5.479-1.738 1.038-3.427 1.955-3.427 1.955zM256.025 32.352s3.62-.99 5.165 0c1.569.99 4.007 3.838 1.955 4.876-2.052 1.038-4.176 1.4-3.186 3.355.99 1.955-2.872 2.607-3.959 0-1.086-2.607-1.086-3.572-2.22-4.779-1.086-1.231-.604-3.838 2.245-3.452zM309.73 100.588c-14.941-3.91-2.558-10.065-7.772-17.137-2.993-4.031 2.317-8.883-1.062-9.534-1.979-.386-6.493 4.634-9.124 0-2.631-4.634-7.29-4.683-8.641-1.859-1.352 2.824-7.097 4.755-10.838 2.728-3.765-2.028-1.569-4.755-4.827-6.879-3.259-2.124-3.5-5.528 0-8.158 3.499-2.631 1.882-6.396 7.144-5.238 5.238 1.159 4.224-10.91 4.224-10.91-.072-2.124 1.955-2.486.797-4.441-1.159-1.955-4.441-.362-6.179-4.731-1.738-4.369 2.775-6.976 6.396-6.565 1.062.121 3.645-.628 6.831-1.593 17.958 7.434 31.017 24.934 31.934 45.306.482 11.272-2.945 21.144-8.883 29.013zM240.359 65.903s3.017-1.69 4.61-.338c1.594 1.328 2.294 2.221 4.659 1.714 2.365-.507 3.959.459 2.438 1.135-1.521.676-5.117 1.907-6.759.459-1.641-1.448-6.348-2.39-4.948-2.969zM252.476 71.31s2.124.386 2.631-.507c.507-.869-.507-.048-1.327-.507-.797-.434-2.366.024-1.304 1.014z" fill="#27BE01"/><path opacity=".6" d="M259.283 152.725c19.237-19.672 46.247-42.892 58.002-32.489 14.169 12.552-20.227 28.362-46.078 44.534-9.293 5.793-24.186.483-11.924-12.045z" fill="#7FC064"/><path d="M235.508 160.884s98.215-37.993 111.177-7.628c12.961 30.365-73.451 9.052-101.571 21.145l-9.606-13.517z" fill="#FFD523"/><path d="M240.818 168.487c19.262-8.689 43.013-11.441 59.571-12.214 17.934-.844 31.475.387 31.596.411l.072-.845c-.145-.024-13.734-1.255-31.716-.41-16.607.772-40.479 3.548-59.861 12.286l.338.772z" fill="#F4F4F4"/><path d="M302.996 223.472c-12.334-5.527-22.4 11.876-32.32-.024-8.4-10.065-8.545-11.634-14.265-11.296-1.956.12-3.887.555-5.745 1.206-2.221.797-5.962 1.594-9.486-.144-21.482-10.645-26.793-57.882 4.441-58.799 2.245-.073 4.659 1.038 7.241 2.365 13.952 7.242 13.638 15.883 34.348 8.376 20.734-7.507 18.562 23.51 27.492 28.941 8.955 5.431 18.2 8.351 18.2 22.061 0 13.71-17.572 12.841-29.906 7.314z" fill="#60898F"/><g opacity=".5"><path opacity=".5" d="M236.642 179.349l.048-.893c.386.024 39.779 2.076 95.874 41.347l-.507.724c-55.878-39.127-95.029-41.178-95.415-41.178zM286.606 183.283c-2.462-11.9.073-18.03.193-18.296l.821.338c-.024.048-2.534 6.179-.145 17.765l-.869.193zM282.189 191.924c.604-5.093 4.61-10.161 11.586-14.603 5.238-3.331 10.355-5.189 10.403-5.213l.29.844c-.193.073-20.034 7.338-21.41 19.069l-.869-.097zM297.613 201.338c-.338-1.352-.459-2.172-.459-2.221l.869-.12c.024.169 2.607 17.33 17.5 27.589l-.507.724c-11.972-8.255-16.148-20.903-17.403-25.972zM292.617 223.158c-.604-6.155 1.182-10.548 2.775-13.155 1.738-2.848 3.597-4.2 3.669-4.272l.531.724c-.072.048-7.193 5.359-6.082 16.607l-.893.096z" fill="#F4F4F4"/></g><path opacity=".6" d="M323.464 185.818c2.39 2.631 2.269 4.175 1.231 5.117-1.038.941-2.582.917-4.972-1.738-4.345-4.803-4.586-8.834-4.586-8.834s3.91.579 8.327 5.455zM325.612 175.052c3.356.121 4.297 1.207 4.249 2.511-.049 1.303-1.087 2.341-4.417 2.22-6.083-.217-8.955-2.679-8.955-2.679s2.944-2.245 9.123-2.052z" fill="#7FC064"/><path opacity=".4" d="M64.808 23.252s3.331-6.421 11.779-5.6c8.448.796 7.434 7.241 11.441 6.638 4.007-.604 9.631 0 10.838 4.031 1.207 4.031 6.637 1.81 6.831 5.214.193 3.428-6.228 5.817-13.662 2.824-7.434-3.017-11.055 2.341-21.482 1.376-10.451-.965-11.731-2.172-17.934-1.569-6.179.603-6.034-3.621-3.234-6.445 2.824-2.848 14.217-2.583 15.424-6.469z" fill="#fff"/><path opacity=".6" d="M129.158 26.487s1.4-2.679 4.924-2.341c3.524.338 3.09 3.017 4.779 2.776 1.666-.241 4.031 0 4.538 1.666.507 1.665 2.776.748 2.848 2.172.073 1.424-2.606 2.438-5.696 1.183-3.09-1.255-4.61.965-8.979.579-4.369-.41-4.9-.917-7.483-.652-2.582.241-2.51-1.521-1.351-2.679 1.158-1.207 5.913-1.086 6.42-2.703zM107.097 44.372s1.737-3.331 6.13-2.921c4.393.41 3.862 3.765 5.962 3.452 2.1-.314 5.021 0 5.649 2.1.627 2.1 3.451.941 3.548 2.727.096 1.786-3.235 3.041-7.121 1.472-3.862-1.569-5.745 1.207-11.175.724-5.431-.507-6.107-1.134-9.317-.821-3.211.314-3.138-1.883-1.69-3.355 1.472-1.497 7.386-1.352 8.014-3.379z" fill="#fff"/><path d="M62.346 64.962c-1.81 2.1-2.993 2.148-3.838 1.448-.821-.7-.965-1.907.845-4.007 3.283-3.838 6.348-4.393 6.348-4.393s-.024 3.065-3.355 6.952zM68.066 81.954c-1.014 2.583-2.148 3.017-3.162 2.607-1.014-.41-1.521-1.496-.507-4.055 1.859-4.683 4.586-6.228 4.586-6.228s.965 2.921-.917 7.676zM82.211 126.415l-.507.121c-.024-.072-2.028-7.941-8.472-18.272-5.938-9.534-16.969-23.172-35.772-33.985l.266-.459c18.9 10.886 30.003 24.596 35.965 34.203 6.493 10.379 8.521 18.32 8.521 18.392zM57.736 88.785l-.507-.121c4.49-18.489-7.7-34.854-7.821-35.023l.41-.314c.121.169 12.455 16.727 7.917 35.458zM47.501 83.306c-5.02 1.738-9.703.531-9.752.507l.145-.507c.048.024 6.034 1.569 11.658-1.472l.241.459c-.772.434-1.545.772-2.293 1.014zM77.552 115.554c-10.572 2.341-20.517.217-29.568-6.3-.314-.217-.604-.435-.676-.459h.048v-.531c.145 0 .29.097.941.555 8.931 6.445 18.731 8.521 29.158 6.204l.097.531zM61.332 115.192l-.531.024c-.483-7.097-8.086-15.134-8.158-15.231l.386-.362c.024.024 1.979 2.076 3.959 4.996 1.834 2.728 4.079 6.759 4.345 10.573zM36.181 71.624c3.428 1.472 4.103 2.703 3.693 3.693-.434.99-1.786 1.376-5.214-.097-6.252-2.655-8.521-5.745-8.521-5.745s3.693-.555 10.041 2.148zM38.522 81.761c3.717.362 4.731 1.328 4.634 2.414-.096 1.086-1.303 1.859-4.996 1.496-6.759-.652-9.848-2.921-9.848-2.921s3.355-1.641 10.21-.99zM53.56 97.885c2.003 1.907 1.979 3.114 1.231 3.91-.748.773-1.955.845-3.959-1.062-3.645-3.476-4.055-6.589-4.055-6.589s3.09.193 6.783 3.741zM49.843 73.675c1.472 2.341 1.158 3.5.241 4.079-.917.579-2.1.338-3.572-2.003-2.679-4.272-2.317-7.362-2.317-7.362s2.921.966 5.648 5.286zM66.98 110.292c.748 2.655.145 3.693-.917 3.982-1.038.29-2.124-.265-2.872-2.92-1.376-4.852-.145-7.724-.145-7.724s2.534 1.762 3.934 6.662zM50.06 108.047c2.365 1.448 2.607 2.631 2.052 3.548-.555.917-1.714 1.255-4.079-.193-4.297-2.631-5.358-5.576-5.358-5.576s3.017-.434 7.386 2.221zM50.156 50.962c2.004 3.138 1.859 4.562.941 5.141-.917.579-2.245.121-4.248-3.017-3.645-5.745-3.765-9.558-3.765-9.558s3.379 1.617 7.072 7.434z" fill="#60898F"/><path d="M122.448 194.821s-53.296-87.86-76.612-72.485c-23.293 15.352 48.757 50.954 63.481 77.023l13.131-4.538z" fill="#7FC064"/><path d="M97.635 179.156s-61.357-65.075-82.405-46.561c-21.048 18.537 52.982 33.84 70.095 53.392l12.31-6.831z" fill="#60898F"/><path d="M90.78 183.042c-11.586-13.71-28.772-24.524-41.179-31.186-13.444-7.217-24.258-11.224-24.355-11.272l.241-.676c.096.049 10.983 4.08 24.451 11.297 12.455 6.686 29.737 17.548 41.371 31.354l-.531.483z" fill="#F4F4F4"/><path d="M24.305 204.428c13.807 2.679 11.972 23.534 27.541 19.358 15.593-4.2 14.265-5.166 21.941 1.472 0 0 3.066 6.517 9.317 7.483 24.668 3.789 57.519-33.262 31.451-52.765-1.883-1.4-4.586-1.906-7.579-2.317-16.245-2.172-21.121 5.359-34.275-13.444-13.155-18.803-29.882 8.906-40.768 8.182-10.886-.724-20.517-3.789-28.723 7.893-8.231 11.659 7.289 21.458 21.096 24.138z" fill="#FFD523"/><path d="M107.29 206.576l.507-.773c-.338-.217-35.144-22.061-106.471-22.206v.917c71.061.145 105.626 21.845 105.964 22.062zM62.37 179.976c9.221-8.665 10.741-15.423 10.789-15.689l-.893-.193c-.024.072-1.545 6.783-10.524 15.207l.628.675zM60.946 189.993c2.534-4.706 2.148-11.417-1.134-19.382-2.462-5.962-5.721-10.62-5.745-10.669l-.748.531c.121.193 12.672 18.248 6.831 29.086l.797.434zM42.143 188.787c1.11-.966 1.69-1.593 1.714-1.618l-.676-.627c-.121.12-12.6 13.203-31.427 13.034v.917c15.158.145 26.31-8.134 30.389-11.706zM33.357 210.365c4.2-4.875 5.31-9.703 5.527-12.865.217-3.451-.555-5.744-.579-5.841l-.869.29c.024.096 2.921 8.858-4.779 17.813l.7.603z" fill="#F4F4F4"/><path d="M208.908 206.721v-28.41h-57.302v28.41c0 7.386-4.9 13.372-10.983 13.372h-2.317v3.669h83.853v-3.669h-2.317c-6.01 0-10.934-5.986-10.934-13.372z" fill="#165556"/><path d="M221.725 223.762h-82.912c-1.014 0-1.834-.821-1.834-1.835s.82-1.834 1.834-1.834h82.912c1.014 0 1.834.82 1.834 1.834 0 1.014-.82 1.835-1.834 1.835zM277.869 195.762l-193.751-2.22c-4.152-.049-7.483-3.428-7.483-7.579v-118.25c0-4.128 3.331-7.507 7.459-7.579l191.24-2.921c4.176-.072 7.604 3.259 7.676 7.41l2.51 123.414c.073 4.273-3.379 7.773-7.651 7.724z" fill="#237172"/><path d="M271.303 172.301h-183.106c-2.245 0-4.055-1.811-4.055-4.055v-95.054c0-2.245 1.81-4.055 4.055-4.055h183.106c2.245 0 4.055 1.81 4.055 4.055v95.054c0 2.244-1.81 4.055-4.055 4.055z" fill="#E4F1EF"/><path d="M223.632 24.049c-.29 0-.555-.096-.772-.265-.266-.217-.459-.507-.483-.845l-.242-1.786c-.048-.41-.338-.772-.748-.893l-.314-.096c-.41-.145-.844-.024-1.134.29l-1.304 1.4c-.482.531-1.303.555-1.81.072l-1.52-1.4c-.242-.241-.411-.555-.411-.893-.024-.338.097-.676.338-.917l1.11-1.207c.314-.338.362-.845.145-1.231v-.024c-.217-.386-.651-.603-1.086-.555l-1.521.217c-.338.048-.675-.048-.941-.241-.265-.217-.459-.507-.483-.845l-.265-2.052c-.049-.338.048-.676.241-.941.217-.266.507-.459.845-.483l1.521-.217c.434-.048.796-.386.893-.821.12-.459-.073-.917-.459-1.183l-1.4-.869c-.29-.193-.483-.459-.579-.797-.073-.338-.024-.676.169-.965l1.086-1.762c.193-.29.459-.483.797-.579.337-.072.675-.024.965.169l1.617 1.014c.362.217.821.217 1.183-.024l.29-.193c.338-.217.531-.628.482-1.038l-.241-1.786c-.097-.7.41-1.352 1.11-1.448l2.052-.266c.338-.048.676.048.941.241.266.217.459.507.483.845l.169 1.328c.072.459.434.845.893.917.386.072.773.145 1.135.266.386.121.844 0 1.11-.29l1.159-1.255c.482-.531 1.303-.555 1.81-.072l1.52 1.4c.531.483.556 1.303.073 1.81l-.821.893c-.314.338-.386.869-.145 1.279l.145.266c.217.386.628.603 1.086.531l1.087-.145c.7-.097 1.351.41 1.448 1.11l.265 2.052c.049.338-.048.676-.241.941-.217.265-.507.459-.845.483l-1.086.145c-.435.048-.797.386-.893.796l-.073.29c-.12.459.073.941.459 1.183l1.014.628c.289.193.483.459.579.796.073.338.024.676-.169.966l-1.086 1.762c-.386.604-1.159.772-1.762.41l-1.448-.893c-.338-.217-.797-.217-1.159.024-.338.217-.676.41-1.038.555-.434.193-.676.652-.627 1.11l.169 1.328c.048.338-.049.676-.242.941-.217.265-.507.459-.845.483l-2.051.265-.145.072zm-2.921-4.176c.145 0 .29.024.411.072.096.048.193.073.313.097.483.145.821.555.893 1.062l.242 1.786c.048.29.193.531.41.7.217.169.507.241.797.217l2.051-.266c.29-.048.531-.193.7-.41.169-.217.242-.507.218-.797l-.169-1.328c-.073-.555.217-1.11.748-1.352.338-.169.676-.338 1.014-.555.41-.265.965-.265 1.376-.024l1.448.893c.507.314 1.158.169 1.472-.338l1.086-1.762c.145-.241.193-.531.145-.796-.072-.29-.241-.507-.483-.676l-1.013-.627c-.483-.314-.7-.869-.556-1.424l.073-.29c.121-.507.555-.893 1.086-.966l1.086-.145c.29-.048.531-.193.7-.41.169-.217.242-.507.217-.796l-.265-2.052c-.072-.579-.628-.99-1.207-.917l-1.086.145c-.531.072-1.038-.193-1.279-.652l-.145-.266c-.29-.483-.217-1.11.169-1.521l.82-.893c.194-.217.29-.483.29-.772 0-.29-.145-.555-.338-.748l-1.52-1.4c-.435-.41-1.111-.362-1.521.072l-1.159 1.255c-.338.362-.869.507-1.327.362-.362-.121-.749-.193-1.111-.266-.555-.097-.989-.531-1.062-1.086l-.169-1.328c-.048-.29-.193-.531-.41-.7-.217-.169-.507-.241-.796-.217l-2.052.266c-.579.072-.99.628-.917 1.207l.241 1.786c.072.507-.169.99-.579 1.255l-.266.169c-.41.29-.965.314-1.4.024l-1.617-1.014c-.241-.145-.531-.193-.797-.145-.289.072-.506.241-.675.483l-1.087 1.762c-.144.241-.193.531-.144.797.072.29.241.507.482.676l1.4.869c.459.29.7.845.555 1.376-.12.531-.555.917-1.086.99l-1.52.217c-.29.048-.531.193-.7.41-.169.217-.242.507-.218.797l.266 2.052c.048.29.193.531.41.7.218.169.507.241.797.217l1.52-.217c.531-.072 1.038.193 1.304.652l-.097.072.097-.048c.265.483.193 1.086-.193 1.496l-1.111 1.207c-.193.217-.289.483-.289.772 0 .29.145.555.338.748l1.52 1.4c.435.41 1.111.362 1.521-.072l1.303-1.4c.145-.241.483-.386.845-.386zM223.994 17.049c-1.038 0-2.172-.459-3.162-1.279-1.11-.917-1.883-2.148-2.027-3.307-.145-1.159.265-2.317 1.158-3.307.845-.917 2.028-1.545 3.21-1.714 1.135-.145 2.294.29 3.259 1.255.893.893 1.497 2.1 1.666 3.307.168 1.183-.121 2.366-.773 3.283-.676.941-1.689 1.569-2.848 1.714-.193.024-.338.048-.483.048zm-.386-9.438c-.145 0-.266 0-.41.024-1.135.145-2.269.748-3.09 1.641-.845.941-1.231 2.052-1.086 3.138.145 1.11.869 2.293 1.955 3.186 1.11.917 2.365 1.352 3.452 1.207 1.11-.145 2.075-.724 2.703-1.641.628-.893.893-2.003.748-3.138-.145-1.159-.748-2.341-1.593-3.186-.82-.797-1.762-1.231-2.679-1.231zM204.129 33.197l3.21-.097c1.231-.024 2.197-1.062 2.148-2.269l-.096-3.886c-.024-1.231-1.062-2.197-2.269-2.148l-2.269.072c-.99.024-1.859-.579-2.172-1.521-.049-.169-.121-.362-.193-.531-.314-.845-.049-1.81.627-2.414l1.545-1.352c.917-.796 1.014-2.221.217-3.138l-2.558-2.921c-.797-.917-2.197-1.014-3.138-.217l-1.545 1.352c-.676.604-1.666.724-2.486.29-.169-.097-.338-.169-.507-.241-.869-.434-1.376-1.376-1.231-2.341l.362-2.245c.193-1.207-.628-2.341-1.835-2.534l-3.837-.628c-1.207-.193-2.342.628-2.535 1.834l-.507 3.162c-.145.845-.748 1.545-1.593 1.786-.7.193-1.376.459-2.051.748-.894.41-1.956.193-2.607-.555l-1.666-1.907c-.796-.917-2.22-1.014-3.138-.217l-2.92 2.559c-.917.796-1.014 2.221-.217 3.138l2.244 2.559c.58.652.724 1.569.362 2.366l-.241.579c-.314.821-1.11 1.352-2.003 1.376l-3.621.097c-1.231.024-2.197 1.062-2.148 2.269l.096 3.91c.024 1.231 1.062 2.197 2.269 2.148l3.114-.072c.965-.024 1.81.555 2.148 1.448v.024c.314.869.073 1.835-.627 2.438l-2.197 1.931c-.917.797-1.014 2.221-.217 3.138l2.558 2.945c.797.917 2.221 1.014 3.138.217l2.197-1.931c.7-.603 1.689-.724 2.486-.29l.024.024c.845.434 1.303 1.376 1.159 2.317l-.483 3.066c-.193 1.207.627 2.341 1.834 2.534l3.862.628c1.207.193 2.342-.628 2.535-1.834l.579-3.572c.145-.869.772-1.593 1.641-1.786.193-.048.411-.096.604-.169.82-.241 1.714.024 2.293.676l2.245 2.559c.796.917 2.22 1.014 3.138.217l2.944-2.558c.918-.797 1.014-2.221.218-3.138l-1.666-1.907c-.652-.748-.724-1.81-.217-2.655.386-.628.724-1.279 1.014-1.931.362-.845 1.11-1.376 1.979-1.4zm-10.572 1.81c-3.404 2.993-10.379 2.124-13.348-1.279-2.969-3.403-1.786-9.172 1.617-12.141 3.403-2.993 9.22-1.376 12.189 2.027 2.993 3.403 2.945 8.424-.458 11.393zM187.571 53.134c-.121 0-.242 0-.362-.024l-3.862-.628c-.604-.097-1.135-.434-1.497-.917-.362-.507-.507-1.11-.41-1.714l.483-3.066c.144-.917-.314-1.81-1.135-2.245l-.024-.024c-.772-.41-1.762-.29-2.414.29l-2.196 1.931c-.459.41-1.038.603-1.666.555-.603-.048-1.158-.314-1.569-.772l-2.558-2.945c-.411-.459-.604-1.038-.555-1.665.048-.604.313-1.159.772-1.569l2.197-1.931c.675-.579.917-1.521.603-2.365v-.024c-.314-.869-1.159-1.448-2.076-1.424l-3.114.072c-.603.024-1.182-.217-1.641-.628-.434-.41-.7-.99-.724-1.593l-.097-3.91c-.024-.603.218-1.183.628-1.641.41-.434.99-.7 1.593-.724l3.621-.097c.869-.024 1.617-.555 1.931-1.352l.241-.579c.338-.748.193-1.641-.362-2.293l-2.245-2.559c-.82-.941-.724-2.39.217-3.234l2.921-2.559c.459-.41 1.038-.603 1.666-.555.603.048 1.158.314 1.568.772l1.666 1.907c.628.724 1.641.941 2.51.531.676-.29 1.352-.555 2.076-.748.797-.241 1.4-.917 1.545-1.738l.507-3.162c.193-1.255 1.376-2.1 2.631-1.883l3.838.628c.603.097 1.134.434 1.496.917.362.507.507 1.11.41 1.714l-.362 2.245c-.144.941.314 1.859 1.183 2.269l.507.241c.772.41 1.738.29 2.414-.29l1.545-1.352c.941-.821 2.389-.724 3.234.217l2.558 2.921c.411.459.604 1.038.556 1.665-.049.604-.314 1.159-.773 1.569l-1.545 1.352c-.675.579-.917 1.521-.603 2.341l.193.531c.29.917 1.135 1.497 2.1 1.472l2.269-.072c.603-.024 1.183.217 1.641.627.435.41.7.99.724 1.593l.097 3.886c.024 1.255-.965 2.317-2.221 2.341l-3.21.096c-.821.024-1.593.531-1.931 1.303-.29.676-.627 1.328-1.014 1.955-.507.821-.434 1.858.193 2.559l1.666 1.907c.41.459.603 1.038.555 1.666-.048.603-.314 1.159-.772 1.569l-2.945 2.559c-.459.41-1.038.603-1.666.555-.603-.048-1.158-.314-1.569-.772l-2.244-2.559c-.555-.628-1.424-.893-2.221-.652l-.603.169c-.821.217-1.449.893-1.593 1.738l-.58 3.572c-.12 1.207-1.11 2.028-2.196 2.028zm-7.772-8.979c.362 0 .724.096 1.062.265l.024.024c.869.459 1.351 1.424 1.207 2.39l-.483 3.066c-.097.579.048 1.134.386 1.593.338.459.845.772 1.4.869l3.862.628c1.183.193 2.269-.603 2.462-1.786l.579-3.572c.145-.893.797-1.641 1.69-1.859.193-.048.41-.097.603-.169.845-.241 1.762.024 2.366.7l2.245 2.559c.386.434.893.7 1.472.724.579.048 1.134-.145 1.569-.531l2.945-2.559c.434-.386.7-.893.724-1.472.048-.579-.145-1.134-.531-1.569l-1.666-1.907c-.676-.748-.748-1.859-.217-2.727.386-.628.724-1.255 1.014-1.931.362-.821 1.158-1.352 2.027-1.376l3.211-.097c1.182-.024 2.124-1.014 2.1-2.221l-.097-3.886c-.024-.579-.265-1.11-.676-1.497-.41-.386-.965-.603-1.545-.579l-2.269.072c-1.013.024-1.906-.603-2.22-1.569-.048-.169-.121-.362-.193-.531-.314-.869-.073-1.883.651-2.486l1.545-1.352c.435-.386.7-.893.724-1.472.049-.579-.144-1.134-.531-1.569l-2.558-2.921c-.773-.893-2.148-.99-3.042-.193l-1.544 1.352c-.7.628-1.738.748-2.559.314-.169-.097-.338-.169-.507-.241-.917-.434-1.424-1.424-1.255-2.414l.362-2.245c.097-.579-.048-1.135-.386-1.593-.338-.459-.845-.772-1.4-.869l-3.838-.628c-1.158-.193-2.269.603-2.462 1.786l-.507 3.162c-.145.869-.772 1.593-1.641 1.834-.7.193-1.4.459-2.052.748-.941.41-2.003.193-2.679-.579l-1.666-1.907c-.386-.434-.893-.7-1.472-.724-.579-.048-1.134.145-1.569.531l-2.921 2.559c-.893.772-.989 2.148-.193 3.041l2.245 2.559c.579.676.748 1.617.386 2.438l-.241.579c-.338.845-1.134 1.4-2.052 1.424l-3.62.097c-.58.024-1.111.265-1.497.676-.386.41-.603.965-.579 1.545l.096 3.91c.025.579.266 1.11.676 1.496.411.386.966.603 1.545.579l3.114-.072c.989-.024 1.858.579 2.196 1.496v.024c.338.893.073 1.883-.627 2.51l-2.197 1.931c-.434.386-.7.893-.724 1.472-.048.579.145 1.134.531 1.569l2.559 2.945c.386.434.893.7 1.472.724.579.048 1.135-.145 1.569-.531l2.197-1.931c.313-.434.844-.627 1.4-.627z" fill="#60898F"/><path opacity=".6" d="M257.69 115.988h-156.097c-2.221 0-4.031-1.81-4.031-4.031v-26.551c0-2.221 1.81-4.031 4.031-4.031h156.073c2.22 0 4.031 1.81 4.031 4.031v26.551c.024 2.221-1.787 4.031-4.007 4.031zM259.259 126.56h-75.381c-.652 0-1.159-.531-1.159-1.158v-.7c0-.652.531-1.183 1.183-1.159l75.381.7c.652 0 1.158.531 1.158 1.159 0 .627-.531 1.158-1.182 1.158z" fill="#7FC064"/><path d="M253.635 97.306h-50.568v-1.907l50.568.434v1.472z" fill="#FFC655"/><path d="M225.635 101.626h-22.568v-1.907l22.568.434v1.472zM232.973 110.968h-29.906v-1.931l29.906.458v1.473z" fill="#00784D"/><path d="M225.635 106.647h-22.568v-1.931l22.568.459v1.472z" fill="#60898F"/><path d="M242.121 106.647h-13.251v-1.931l13.251.459v1.472z" fill="#FFC655"/><path d="M251.463 101.626h-22.593v-1.907l22.593.434v1.472z" fill="#00784D"/><path opacity=".6" d="M259.379 133.271l-75.574.893c-.603 0-1.086-.483-1.086-1.062v-.894c0-.579.483-1.062 1.062-1.062h75.574c.58 0 1.062.483 1.062 1.062.024.58-.458 1.063-1.038 1.063zM139.489 156.756h-41.372v-2.462l40.696.555c.7 0 1.279.58 1.279 1.304 0 .338-.289.603-.603.603zM152.402 162.766l-53.609.725c-.386 0-.676-.29-.676-.676v-1.086c0-.363.29-.676.676-.676h53.609c.362 0 .676.289.676.676v.362c0 .362-.314.675-.676.675zM195.126 162.766l-37.51.7c-.483 0-.869-.386-.869-.869v-.699c0-.483.386-.869.869-.869h37.51c.482 0 .869.386.869.869-.025.482-.411.868-.869.868zM259.379 142.998l-75.574.893c-.603 0-1.086-.483-1.086-1.062v-.893c0-.579.483-1.062 1.062-1.062h75.574c.58 0 1.062.483 1.062 1.062.024.579-.458 1.062-1.038 1.062z" fill="#7FC064"/><path d="M131.886 147.077h-30.776c-1.955 0-3.548-1.593-3.548-3.548v-19.238c0-1.955 1.593-3.548 3.548-3.548h30.776c1.955 0 3.548 1.593 3.548 3.548v19.238c0 1.955-1.593 3.548-3.548 3.548z" fill="#4DB05B"/><path opacity=".6" d="M171.374 147.077h-27.83c-1.665 0-3.017-1.352-3.017-3.017v-20.324c0-1.665 1.352-3.017 3.017-3.017h27.83c1.666 0 3.018 1.352 3.018 3.017v20.3c.024 1.665-1.328 3.041-3.018 3.041z" fill="#7FC064"/><path d="M132.924 161.704c-.194 10.983-.99 25.996-3.476 39.151-4.152 21.965-29.738 37.051-34.469 39.682-.459.266-1.038.29-1.521.048-40.02-18.368-39.392-46.295-39.392-46.295v-32.803c0-.917.748-1.665 1.666-1.689 6.083-.097 27.348-1.256 36.617-12.166.627-.748 1.786-.772 2.462-.072 3.983 4.055 17.041 15.327 38.016 14.144h.097z" fill="#27BE01"/><path d="M94.135 235.203l-.072-.024c-8.159-3.669-15.086-8.11-20.589-13.179-4.417-4.055-7.917-8.545-10.427-13.324-4.297-8.134-4.2-14.41-4.2-14.483v-27.492c0-1.569 1.231-2.824 2.776-2.873 2.993-.096 8.907-.506 14.941-2.027 7.193-1.81 12.503-4.659 15.762-8.472.314-.362.772-.58 1.231-.604.483-.024.941.169 1.255.507 2.221 2.293 8.206 7.845 15.858 10.017 6.107 1.738 11.755 2.197 14.579 2.293 1.521.048 2.727 1.328 2.679 2.848-.314 12.817-1.255 23.148-2.848 31.572-.917 4.852-3.114 9.728-6.541 14.507-2.728 3.789-6.228 7.531-10.428 11.103-7.144 6.058-13.855 9.558-13.927 9.607l-.048.024zm-.507-82.116h-.048c-.386 0-.724.193-.966.459-3.307 3.862-8.689 6.758-15.955 8.593-6.058 1.521-12.02 1.931-15.014 2.027-1.376.049-2.438 1.159-2.438 2.511v27.516c0 .073-.096 6.252 4.176 14.314 2.51 4.731 5.986 9.172 10.355 13.227 5.455 5.021 12.31 9.438 20.396 13.083.772-.411 7.096-3.838 13.782-9.535 6.541-5.551 14.772-14.482 16.848-25.368 1.593-8.4 2.51-18.731 2.848-31.524.025-1.327-1.013-2.437-2.341-2.486-2.848-.096-8.52-.555-14.675-2.317-7.749-2.221-13.783-7.82-16.028-10.113-.241-.242-.579-.387-.941-.387zM102.728 207.734h-25.32c-2.341 0-4.248-1.906-4.248-4.248v-15.617c0-2.341 1.907-4.248 4.248-4.248h1.424c.603-2.462 2.003-4.682 3.983-6.276 2.052-1.641 4.61-2.558 7.241-2.558 2.631 0 5.19.917 7.241 2.558 1.979 1.594 3.379 3.814 3.982 6.276h1.425c2.341 0 4.248 1.907 4.248 4.248v15.617c.024 2.342-1.883 4.248-4.224 4.248zm-25.32-23.751c-2.148 0-3.886 1.738-3.886 3.886v15.617c0 2.149 1.738 3.886 3.886 3.886h25.32c2.148 0 3.886-1.737 3.886-3.886v-15.617c0-2.148-1.738-3.886-3.886-3.886h-1.569c-.097 0-.169-.048-.169-.145-.555-2.437-1.931-4.634-3.886-6.203-1.979-1.593-4.465-2.486-7.024-2.486-2.534 0-5.045.869-7.024 2.486-1.955 1.569-3.331 3.79-3.886 6.203-.024.073-.097.145-.169.145h-1.593zm20.831 0h-16.365c-.048 0-.121-.024-.145-.072-.024-.048-.048-.097-.024-.169 1.159-3.669 4.514-6.155 8.352-6.155s7.193 2.462 8.352 6.155c.024.048 0 .121-.024.169-.024.048-.072.072-.145.072zm-16.1-.362h15.858c-1.159-3.379-4.321-5.648-7.917-5.648-3.621 0-6.783 2.245-7.941 5.648zM105.19 205.079h-23.848c-2.414 0-4.369-1.955-4.369-4.368v-15.038c0-2.414 1.955-4.369 4.369-4.369h23.848c2.414 0 4.369 1.955 4.369 4.369v15.038c0 2.413-1.955 4.368-4.369 4.368zM93.266 195.255c-6.276 0-11.369-5.093-11.369-11.368 0-6.276 5.093-11.369 11.369-11.369s11.369 5.093 11.369 11.369c0 6.251-5.093 11.368-11.369 11.368zm0-19.937c-4.731 0-8.569 3.838-8.569 8.569 0 4.731 3.838 8.569 8.569 8.569 4.731 0 8.569-3.838 8.569-8.569 0-4.731-3.862-8.569-8.569-8.569z" fill="#F4F4F4"/><path d="M93.266 194.121c-.652 0-1.183-.531-1.183-1.183v-5.744c0-.652.531-1.183 1.183-1.183s1.183.531 1.183 1.183v5.744c0 .652-.531 1.183-1.183 1.183zM93.266 199.335c1.76 0 3.186-1.427 3.186-3.186 0-1.76-1.426-3.187-3.186-3.187s-3.186 1.427-3.186 3.187c0 1.759 1.427 3.186 3.186 3.186z" fill="#27BD01"/><path d="M151.437 112.874l-.193-.048-4.562-2.269c-.217-.12-.314-.386-.193-.603.12-.217.386-.314.603-.193l4.562 2.269c.217.12.314.386.193.603-.096.169-.265.241-.41.241zM144.944 118.354c-.242 0-.435-.193-.459-.411-.024-.241.169-.458.411-.482l5.068-.338c.242-.024.459.169.483.41.024.241-.169.459-.41.483l-5.069.338h-.024zM147.816 125.957c-.144 0-.313-.072-.386-.217-.12-.218-.048-.483.169-.628l4.417-2.583c.218-.12.483-.048.628.169.121.218.048.483-.169.628l-4.417 2.583-.242.048zM166.257 112.874c-.169 0-.313-.096-.41-.241-.121-.217-.024-.507.193-.603l4.562-2.269c.217-.121.507-.024.604.193.12.217.024.507-.194.603l-4.562 2.269c-.072.048-.12.048-.193.048zM172.726 118.354h-.024l-5.069-.338c-.241-.024-.434-.242-.41-.483.024-.241.241-.434.482-.41l5.069.338c.242.024.435.241.411.482-.024.242-.218.411-.459.411zM169.878 125.957c-.072 0-.145-.024-.217-.073l-4.417-2.582c-.218-.121-.29-.411-.169-.628.12-.217.41-.289.627-.169l4.417 2.583c.218.121.29.41.169.628-.12.168-.265.241-.41.241z" fill="#60898F"/><path d="M167.923 115.771c0 5.865-3.886 10.669-8.786 10.958l-.483.024c-5.117 0-9.269-4.924-9.269-10.982 0-2.607.773-4.997 2.028-6.855 1.69-2.51 4.296-4.103 7.217-4.103.821 0 1.617.12 2.365.362 1.956.603 3.645 1.931 4.876 3.741 1.279 1.883 2.052 4.272 2.052 6.855zM167.923 115.771c0 5.865-3.886 10.669-8.786 10.958-.604-1.713-1.062-3.596-1.352-5.575-.555-3.935-.314-7.676.531-10.717.604-2.173 1.521-3.983 2.704-5.262 1.955.603 3.644 1.931 4.875 3.741 1.255 1.883 2.028 4.272 2.028 6.855z" fill="#FFC655"/><path d="M158.654 113.019c3.986 0 7.217-1.837 7.217-4.103s-3.231-4.103-7.217-4.103c-3.986 0-7.217 1.837-7.217 4.103s3.231 4.103 7.217 4.103zM156.626 106.237c-.241 0-.434-.193-.458-.435-.073-3.427-3.259-4.827-3.283-4.827-.241-.097-.338-.362-.241-.604.096-.241.362-.338.603-.241.145.072 3.741 1.641 3.838 5.648 0 .241-.193.459-.459.459zM160.368 107.395c-.242 0-.435-.169-.459-.41-.386-4.852 2.921-6.759 3.066-6.831.217-.121.482-.048.627.169.121.217.048.483-.169.603-.12.073-2.945 1.738-2.607 5.986.025.242-.169.459-.41.483h-.048z" fill="#60898F"/><path opacity=".4" d="M159.233 154.753c20.783 0 37.631-16.848 37.631-37.63 0-20.783-16.848-37.631-37.631-37.631-20.782 0-37.63 16.848-37.63 37.631 0 20.782 16.848 37.63 37.63 37.63z" fill="#4BAE48"/><path d="M175.623 91.996c-.097 0-.194-.024-.29-.097-4.803-3.066-10.379-4.707-16.1-4.707-.314 0-.555-.241-.555-.555 0-.314.241-.555.555-.555 5.938 0 11.707 1.69 16.679 4.876.266.169.338.507.169.748-.096.193-.265.29-.458.29z" fill="#F4F4F4"/><path d="M144.944 144.567c-.097 0-.169-.024-.265-.073-10.162-5.406-16.462-15.906-16.462-27.396 0-.313.241-.555.555-.555.314 0 .555.242.555.555 0 11.08 6.083 21.217 15.883 26.431.265.145.362.483.217.748-.097.169-.29.29-.483.29z" fill="#60898F"/><path d="M202.005 149.177s-6.638.145-8.472-2.776c-1.835-2.92 1.279-5.455 1.279-5.455l9.896 5.359-2.703 2.872z" fill="#FFA076"/><path d="M191.673 133.99l-2.898 4.678 73.376 45.454 2.899-4.679-73.377-45.453z" fill="#8A4D27"/><path d="M265.752 181.328l-1.569 2.535c-.628 1.013-1.955 1.327-2.969.7l-38.282-23.703c-1.014-.628-1.328-1.956-.7-2.969l1.569-2.535c.628-1.014 1.955-1.327 2.969-.7l38.282 23.703c1.014.628 1.327 1.955.7 2.969zM125.755 96.364c-11.466 18.49-5.745 42.772 12.744 54.237 18.489 11.465 42.772 5.745 54.237-12.744 11.465-18.49 5.745-42.772-12.745-54.237-18.513-11.441-42.795-5.745-54.236 12.745zm64.036 39.658c-10.451 16.872-32.609 22.086-49.481 11.634-16.873-10.451-22.086-32.609-11.635-49.481 10.452-16.872 32.61-22.086 49.482-11.634 16.872 10.476 22.086 32.61 11.634 49.481z" fill="#60898F"/><path d="M261.431 157.577c-1.762-13.324-16.703-20.831-16.703-20.831s1.255 29.665 3.814 28.796c4.369-1.496 10.331-1.52 12.889-7.965z" fill="#FFC655"/><path d="M232.249 232.403s-.121 2.22-1.617 2.824c-1.497.579-5.817 1.038-4.248 2.51.893.845 5.262.435 6.493.459 1.231.024 2.365.603 3.306-.193 1.038-.893.145-5.479.145-5.479s-1.086.531-2.027.482c-1.376-.096-2.052-.603-2.052-.603z" fill="#60898F"/><path d="M221.484 176.235c.289 4.635.82 10.621 1.834 17.983 1.907 13.999 4.224 28.12 5.383 34.878.41 2.414 2.365 4.248 4.706 4.393l1.28.097c2.558.169 4.682-2.004 4.562-4.659l-2.004-45.62-.193-7.265c0-.024-16.051-7.386-15.568.193z" fill="#83BB26"/><path d="M246.321 232.789s-.121 2.221-1.617 2.824c-1.497.579-5.817 1.038-4.248 2.51.893.845 5.262.435 6.493.459 1.231.024 2.365.603 3.306-.193 1.038-.893.145-5.479.145-5.479s-1.086.531-2.027.482c-1.376-.096-2.052-.603-2.052-.603z" fill="#60898F"/><path d="M235.29 165.156s-.555 10.065 2.076 29.448c1.907 13.999 4.224 28.12 5.383 34.878.41 2.414 2.365 4.248 4.707 4.393l1.279.097c2.558.169 4.683-2.004 4.562-4.659l-2.004-45.619-.386-15.014-15.617-3.524z" fill="#83BB26"/><path d="M237.994 198.538l-.193-.024c0-.072 1.086-8.327 1.907-11.272.82-2.993 4.634-5.576 4.658-5.6l.097.169c-.049.024-3.766 2.558-4.586 5.479-.773 2.945-1.859 11.176-1.883 11.248z" fill="#60898F"/><path d="M238.066 134.236l-.989-3.017-.29-.869-1.69-5.141-.217 5.117-.145 3.065-.048.966c-.024.651-.459.796-.965 1.376-.218.241-1.569 1.641-.025 2.268 1.907.797 5.455-.41 6.831-1.979-.024.024-2.148-.796-2.462-1.786zM240.138 128.055c.574-2.998-1.094-5.837-3.726-6.341-2.632-.504-5.231 1.519-5.805 4.517-.574 2.998 1.095 5.837 3.726 6.341 2.632.504 5.231-1.519 5.805-4.517z" fill="#FFA076"/><path d="M232.611 125.209c-2.776.096-4.127-1.4-4.152-2.8-.048-1.786 1.159-3.38 2.559-2.704 1.4.676.797-.965 2.124-1.134 2.51-.314 2.969 1.352 5.021 1.448 2.703.097 5.793 4.345 3.524 7.459 0-.049-6.879-2.342-9.076-2.269zM230.149 123.398s2.969 2.704 2.583 4.2c-.386 1.521-.29 2.1 1.448 2.921 1.738.796.193 2.124 2.51 2.221 2.317.096 5.142-2.487 5.142-6.711 0-2.365-1.425-3.91-1.425-3.91l-10.258 1.279z" fill="#60898F"/><path d="M231.235 127.55c.338-.459.966-.579 1.376-.29.434.29.507.869.169 1.328-.338.458-.966.579-1.376.289-.434-.289-.507-.893-.169-1.327z" fill="#FFA076"/><path d="M242.797 128.611l-.073-.048c-.144-.579-.699-.892-.723-.892l-.025-.097.097-.024c.024.024.627.362.796.989l-.072.072zM242.049 127.332l-.073-.072.073-.072s.748-.049.868-.604c0-.048.049-.072.073-.048.048 0 .072.048.048.073-.121.675-.941.723-.989.723zM231.428 119.585l-.144-.025c-.242-.072-.411-.169-.58-.289-.314-.193-.579-.386-1.158-.193l-.097-.049.048-.096c.652-.193.966.024 1.28.217.169.097.313.217.531.266.12.024.217.024.289-.049.314-.217.387-.869.387-.893l.072-.072.072.072c0 .024-.072.749-.434.99-.073.096-.169.121-.266.121zM237.97 119.754c-.99 0-1.738-.676-1.787-.7v-.097h.097s.917.797 1.979.652l.073.048-.049.072-.313.025zM231.959 129.07l-.193-.024-.024-.048.048-.024c.025 0 .628.193 1.062-.603l.048-.025.024.049c-.313.579-.723.675-.965.675zM221.484 176.235s20.13-1.11 29.689 1.231l.145-2.776-13.397-4.031-10.813.266-3.331.724-2.342 3.669.049.917z" fill="#60898F"/><path d="M249.362 142.563s-1.762-7.724-12.599-7.724c-18.876 0-13.59 15.641-15.328 40.503 0 0 12.166-2.679 29.786.893 0 0 1.714-13.469-.507-24.861-.579-3.018-.483-6.204-1.352-8.811zM234.59 134.815s-6.058.097-10.572 4.417c-4.514 4.321-10.306 10.259-11.538 13.686-1.52 4.224 1.28 8.448 4.828 8.521 3.548.096 6.71-2.51 6.71-2.51l10.572-24.114z" fill="#FFC655"/><path d="M251.776 170.152h-.145c.531-9.751-1.182-19.744-1.182-19.84l.12-.025c.049.097 1.738 10.09 1.207 19.865zM221.918 160.329l-.072-.121c3.548-2.124 8.182-7.748 8.231-7.797l.096.097c-.024.048-4.658 5.672-8.255 7.821z" fill="#60898F"/><path d="M197.201 150.287c-.048 2.752 13.614 12.841 21.821 11.152 8.713-1.786-2.028-11.49-2.028-11.49l-16.051-3.693c-.024 0-3.693 1.231-3.742 4.031z" fill="#FFC655"/><path d="M200.919 146.256s.193-1.013-.628-1.737c-.821-.725-1.689-4.031-2.221-3.211-.531.821-.048 3.476-.868 3.766-.821.289 3.717 1.182 3.717 1.182z" fill="#FFA076"/><path d="M206.929 87.313h-.797c-.217 0-.386.169-.386.386v3.572c0 .217-.169.386-.386.386h-.29c-.217 0-.386-.169-.386-.386v-3.572c0-.217-.169-.386-.386-.386h-.797c-.217 0-.386-.169-.386-.386v-.072c0-.217.169-.386.386-.386h3.476c.217 0 .386.169.386.386v.072c-.048.217-.217.386-.434.386zM210.694 89.413h-1.279c-.217 0-.386.169-.386.386v.603c0 .217.169.386.386.386h1.641c.217 0 .386.169.386.386v.072c0 .217-.169.386-.386.386h-2.703c-.217 0-.386-.169-.386-.386v-4.441c0-.217.169-.386.386-.386h2.703c.217 0 .386.169.386.386v.072c0 .217-.169.386-.386.386h-1.617c-.217 0-.386.169-.386.386v.459c0 .217.169.386.386.386h1.279c.217 0 .386.169.386.386v.048c-.024.314-.193.483-.41.483zM214.773 90.306l-.048-.241c-.024-.072-.072-.145-.145-.193-.072-.072-.169-.121-.313-.193l-.507-.193c-.242-.072-.459-.169-.676-.266-.217-.097-.386-.217-.555-.338-.169-.121-.29-.29-.387-.459-.096-.169-.144-.362-.144-.603 0-.217.048-.41.144-.603.097-.169.218-.338.411-.459.169-.121.386-.217.603-.29.242-.072.507-.097.773-.097.289 0 .555.048.796.121.242.072.435.193.604.338.169.145.289.314.386.507l.048.121c.097.266-.096.531-.386.531h-.29c-.169 0-.314-.121-.386-.265v-.024c-.024-.097-.097-.169-.169-.241-.072-.072-.169-.121-.265-.145-.097-.048-.242-.048-.387-.048-.144 0-.265.024-.362.048-.096.024-.193.072-.265.121-.073.048-.121.121-.145.193l-.048.241c0 .169.096.314.265.434.169.121.435.217.773.314.289.097.531.193.748.29.217.097.386.241.531.362.145.145.265.29.338.459.072.169.12.362.12.579 0 .241-.048.434-.144.603-.097.169-.218.338-.387.459s-.362.217-.603.29c-.241.072-.483.096-.772.096-.169 0-.338-.024-.507-.048-.169-.024-.338-.072-.483-.145-.169-.072-.314-.145-.434-.241-.145-.097-.242-.193-.363-.338-.096-.121-.169-.266-.241-.434v-.024c-.072-.266.121-.507.386-.507h.29c.169 0 .338.121.386.29l.048.121c.049.121.121.193.218.266.096.072.193.121.313.145.121.024.266.048.435.048.145 0 .265-.024.362-.048.097-.024.193-.072.265-.121.073-.048.121-.121.145-.193l.024-.217zM220.132 87.313h-.797c-.217 0-.386.169-.386.386v3.572c0 .217-.169.386-.386.386h-.29c-.217 0-.386-.169-.386-.386v-3.572c0-.217-.169-.386-.386-.386h-.797c-.217 0-.386-.169-.386-.386v-.072c0-.217.169-.386.386-.386h3.476c.217 0 .386.169.386.386v.072c-.024.217-.217.386-.434.386zM221.894 91.682h-.29c-.217 0-.386-.169-.386-.386v-4.441c0-.217.169-.386.386-.386h.29c.217 0 .386.169.386.386v4.441c.024.193-.169.386-.386.386zM227.156 91.682h-.459c-.145 0-.265-.072-.338-.193l-1.255-2.052c-.217-.338-.724-.193-.724.217v1.641c0 .217-.169.386-.386.386h-.29c-.217 0-.386-.169-.386-.386v-4.441c0-.217.169-.386.386-.386h.459c.145 0 .265.072.338.193l1.255 2.052c.217.338.724.193.724-.217v-1.641c0-.217.169-.386.386-.386h.29c.217 0 .386.169.386.386v4.441c0 .193-.169.386-.386.386zM232.635 90.861c0 .121-.048.217-.121.29l-.12.097c-.097.097-.242.169-.411.241-.169.072-.362.145-.579.193-.217.048-.483.072-.772.072-.338 0-.652-.048-.918-.169-.289-.121-.506-.266-.724-.483-.193-.217-.362-.483-.458-.797-.121-.314-.169-.676-.169-1.086v-.314c0-.41.048-.772.145-1.086.096-.314.241-.579.434-.797.193-.217.41-.386.7-.483.266-.121.579-.169.893-.169.338 0 .628.048.893.121.242.097.459.193.628.362.169.145.289.338.386.555l.072.169c.097.266-.096.531-.386.531h-.241c-.169 0-.314-.121-.386-.265l-.024-.072c-.049-.097-.097-.193-.194-.266-.072-.072-.169-.145-.289-.169-.121-.048-.266-.072-.411-.072-.362 0-.651.145-.844.41-.193.29-.29.7-.29 1.231v.314c0 .555.097.965.314 1.231.217.29.507.41.917.41.121 0 .241 0 .338-.024l.241-.072.169-.072.121-.096v-.507c0-.217-.169-.386-.386-.386h-.193c-.218 0-.387-.169-.387-.386s.169-.386.387-.386h1.255c.217 0 .386.169.386.386v1.545h.024z" fill="#00784D"/></svg>